<?xml version="1.0" encoding="utf-8"?>
<svg viewBox="0 0 24 24" width="24px" height="24px" xmlns="http://www.w3.org/2000/svg">
  <path d="M 9 12 L 4.537 7.031 L 0 12 L 3 12 C 3 16.97 7.03 21 12 21 C 14.395 21 16.565 20.058 18.179 18.532 L 16.175 16.301 C 15.094 17.351 13.622 18 12 18 C 8.691 18 6 15.309 6 12 L 9 12 Z M 19.463 16.969 L 15 12 L 18 12 C 18 8.691 15.309 6 12 6 C 10.377 6 8.906 6.65 7.825 7.699 L 5.821 5.468 C 7.434 3.942 9.605 3 12 3 C 16.97 3 21 7.03 21 12 L 24 12 L 19.463 16.969 Z" style="" transform="matrix(-1, 0, 0, -1, 24, 24)"/>
</svg>