<?xml version="1.0" encoding="utf-8"?>
<svg viewBox="0 0 24 24" width="24" height="24" clip-rule="evenodd" fill-rule="evenodd" stroke-linejoin="round" stroke-miterlimit="2" xmlns="http://www.w3.org/2000/svg">
  <path d="M 1.956 5.766 C 4.043 2.413 7.763 0.178 12.001 0.178 C 18.526 0.178 23.822 5.475 23.822 11.999 C 23.822 18.525 18.526 23.822 12.001 23.822 C 5.799 23.822 0.705 19.036 0.217 12.958 C 0.188 12.601 0.44 11.999 1.102 11.999 C 1.565 11.999 1.948 12.354 1.986 12.815 C 2.401 17.981 6.73 22.049 12.001 22.049 C 17.547 22.049 22.048 17.546 22.048 11.999 C 22.048 6.454 17.547 1.951 12.001 1.951 C 8.41 1.951 5.256 3.84 3.48 6.675 L 5.835 6.681 C 6.324 6.681 6.721 7.079 6.721 7.568 C 6.721 8.058 6.324 8.455 5.835 8.455 L 1.066 8.455 C 0.576 8.455 0.179 8.058 0.179 7.568 L 0.179 2.78 C 0.179 2.291 0.576 1.894 1.066 1.894 C 1.555 1.894 1.953 2.29 1.953 2.78 L 1.956 5.766 Z M 10.809 5.791 L 10.817 12.369 C 10.817 12.709 11.013 13.019 11.319 13.167 L 16.023 15.447 C 16.464 15.66 16.993 15.475 17.206 15.034 C 17.419 14.593 17.235 14.063 16.794 13.851 L 12.59 11.811 C 12.59 11.811 12.583 5.789 12.583 5.789 C 12.583 5.299 12.184 4.903 11.696 4.903 C 11.206 4.903 10.809 5.301 10.809 5.791 Z" fill-rule="nonzero" style="" transform="matrix(1, 0, 0, 1, 2.220446049250313e-16, 0)"/>
</svg>