<?xml version="1.0" encoding="utf-8"?>
<svg version="1.1" id="Layer_1" xmlns="http://www.w3.org/2000/svg" xmlns:xlink="http://www.w3.org/1999/xlink" x="0px" y="0px"
	 viewBox="0 0 512 512" style="enable-background:new 0 0 512 512;" xml:space="preserve">
<g>
	<path d="M492.4,334.8c-10.9,0-19.7,8.8-19.7,19.7v68.9c0,6.9-1.4,13.3-3.9,19.2c-3.7,8.8-10,16.4-17.9,21.7
		c-3.9,2.7-8.3,4.8-12.9,6.2c-4.6,1.4-9.5,2.2-14.6,2.2h-68.9c-10.9,0-19.7,8.8-19.7,19.7s8.8,19.6,19.7,19.6h68.9
		c12.2,0,23.9-2.5,34.5-7c15.9-6.7,29.4-18,39-32.1c4.8-7.1,8.6-14.9,11.2-23.2c2.6-8.3,4-17.2,4-26.3v-68.9
		C512.1,343.6,503.3,334.8,492.4,334.8z"/>
	<path d="M354.5,39.3h68.9c6.9,0,13.3,1.4,19.2,3.9c8.8,3.7,16.4,10,21.7,17.9c2.7,3.9,4.8,8.3,6.2,12.9c1.4,4.6,2.2,9.5,2.2,14.6
		v68.9c0,10.9,8.8,19.7,19.7,19.7s19.6-8.8,19.6-19.7V88.6c0-12.2-2.5-23.9-7-34.5c-6.7-15.9-18-29.4-32.1-39
		c-7.1-4.8-14.9-8.6-23.2-11.2c-8.3-2.6-17.2-4-26.3-4h-68.9c-10.9,0-19.7,8.8-19.7,19.7C334.8,30.5,343.6,39.3,354.5,39.3z"/>
	<path d="M157.5,472.6H88.6c-6.9,0-13.3-1.4-19.2-3.9c-8.8-3.7-16.4-10-21.7-17.9c-2.7-3.9-4.8-8.3-6.2-12.9
		c-1.4-4.6-2.2-9.5-2.2-14.6v-68.9c0-10.9-8.8-19.7-19.7-19.7C8.7,334.7,0,343.6,0,354.5v68.9c0,12.2,2.5,23.9,7,34.5
		c6.7,15.9,18,29.4,32.1,39c7.1,4.8,14.9,8.6,23.2,11.2c8.3,2.6,17.2,4,26.3,4h68.9c10.9,0,19.7-8.8,19.7-19.7
		C177.2,481.4,168.4,472.6,157.5,472.6z"/>
	<path d="M157.5,0H88.6C76.4,0,64.7,2.5,54.1,7c-15.9,6.7-29.4,18-39,32.1c-4.7,7-8.5,14.8-11.1,23.2c-2.6,8.3-4,17.2-4,26.3v68.9
		c0,10.9,8.8,19.7,19.7,19.7c10.9,0,19.7-8.8,19.7-19.7V88.6c0-6.9,1.4-13.3,3.9-19.2c3.7-8.8,10-16.4,17.9-21.7
		C65,45.1,69.4,43,74,41.6c4.6-1.4,9.5-2.2,14.6-2.2h68.9c10.9,0,19.7-8.8,19.7-19.7C177.2,8.8,168.4,0,157.5,0z"/>
</g>
</svg>
