<?xml version="1.0" encoding="utf-8"?>
<svg viewBox="0 0 24 24" width="24" height="24" clip-rule="evenodd" fill-rule="evenodd" stroke-linejoin="round" stroke-miterlimit="2" xmlns="http://www.w3.org/2000/svg">
  <path d="M 13.355 15.976 L 13.355 20.286 C 13.355 20.832 13.799 21.28 14.352 21.28 C 14.601 21.28 14.849 21.186 15.039 21.007 C 17.392 18.773 21.594 14.787 23.518 12.961 C 23.783 12.711 23.932 12.362 23.932 12 C 23.932 11.637 23.783 11.289 23.518 11.039 C 21.594 9.213 17.392 5.225 15.039 2.994 C 14.849 2.814 14.601 2.72 14.352 2.72 C 13.799 2.72 13.355 3.166 13.355 3.714 L 13.355 8.024 L 1.397 8.024 C 0.693 8.024 0.068 8.647 0.068 9.35 L 0.068 14.65 C 0.068 15.353 0.693 15.976 1.397 15.976 L 13.355 15.976 Z" fill-rule="nonzero" style="" transform="matrix(1, 0, 0, 1, 2.220446049250313e-16, 0)"/>
</svg>