<?xml version="1.0" encoding="utf-8"?>
<svg viewBox="0 0 24 24" width="24px" height="24px" clip-rule="evenodd" fill-rule="evenodd" stroke-linejoin="round" stroke-miterlimit="2" xmlns="http://www.w3.org/2000/svg">
  <path d="M 1.956 18.234 C 4.043 21.587 7.763 23.822 12.001 23.822 C 18.526 23.822 23.822 18.525 23.822 12.001 C 23.822 5.475 18.526 0.178 12.001 0.178 C 5.799 0.178 0.705 4.964 0.217 11.042 C 0.188 11.399 0.44 12.001 1.102 12.001 C 1.565 12.001 1.948 11.646 1.986 11.185 C 2.401 6.019 6.73 1.951 12.001 1.951 C 17.547 1.951 22.048 6.454 22.048 12.001 C 22.048 17.546 17.547 22.049 12.001 22.049 C 8.41 22.049 5.256 20.16 3.48 17.325 L 5.835 17.319 C 6.324 17.319 6.721 16.921 6.721 16.432 C 6.721 15.942 6.324 15.545 5.835 15.545 L 1.066 15.545 C 0.576 15.545 0.179 15.942 0.179 16.432 L 0.179 21.22 C 0.179 21.709 0.576 22.106 1.066 22.106 C 1.555 22.106 1.953 21.71 1.953 21.22 L 1.956 18.234 Z M 10.809 18.209 L 10.817 11.631 C 10.817 11.291 11.013 10.981 11.319 10.833 L 16.023 8.553 C 16.464 8.34 16.993 8.525 17.206 8.966 C 17.419 9.407 17.235 9.937 16.794 10.149 L 12.59 12.189 C 12.59 12.189 12.583 18.211 12.583 18.211 C 12.583 18.701 12.184 19.097 11.696 19.097 C 11.206 19.097 10.809 18.699 10.809 18.209 Z" fill-rule="nonzero" style="" transform="matrix(-1, 0, 0, -1, 24, 24)"/>
</svg>